HIERARCHY
ROOT Hips
{
	OFFSET 0.000000 0.000000 0.000000 
	CHANNELS 6 Xposition Yposition Zposition Zrotation Yrotation Xrotation
	JOINT LeftUpLeg
	{
		OFFSET 1.363060 -1.794630 0.839290 
		CHANNELS 3 Zrotation Yrotation Xrotation
		JOINT LeftLeg
		{
			OFFSET 2.448110 -6.726130 0.000000 
			CHANNELS 3 Zrotation Yrotation Xrotation
			JOINT LeftFoot
			{
				OFFSET 2.562200 -7.039590 0.000000 
				CHANNELS 3 Zrotation Yrotation Xrotation
				JOINT LeftToeBase
				{
					OFFSET 0.157640 -0.433110 2.322550 
					CHANNELS 3 Zrotation Yrotation Xrotation
					End Site
					{
						OFFSET 0.000000 0.000000 0.000000 
					}
				}
			}
		}
	}
	JOINT RightUpLeg
	{
		OFFSET -1.305520 -1.794630 0.839290 
		CHANNELS 3 Zrotation Yrotation Xrotation
		JOINT RightLeg
		{
			OFFSET -2.542530 -6.985550 0.000000 
			CHANNELS 3 Zrotation Yrotation Xrotation
			JOINT RightFoot
			{
				OFFSET -2.568260 -7.056230 0.000000 
				CHANNELS 3 Zrotation Yrotation Xrotation
				JOINT RightToeBase
				{
					OFFSET -0.164730 -0.452590 2.363150 
					CHANNELS 3 Zrotation Yrotation Xrotation
					End Site
					{
						OFFSET 0.000000 0.000000 0.000000 
					}
				}
			}
		}
	}
	JOINT Spine
	{
		OFFSET 0.028270 2.035590 -0.193380 
		CHANNELS 3 Zrotation Yrotation Xrotation
		JOINT Spine1
		{
			OFFSET 0.056720 2.048850 -0.042750 
			CHANNELS 3 Zrotation Yrotation Xrotation
			JOINT Neck1
			{
				OFFSET -0.054170 1.746240 0.172020 
				CHANNELS 3 Zrotation Yrotation Xrotation
				JOINT Head
				{
					OFFSET 0.104070 1.761360 -0.123970 
					CHANNELS 3 Zrotation Yrotation Xrotation
					End Site
					{
						OFFSET 0.000000 0.000000 0.000000 
					}
				}
			}
			JOINT LeftArm
			{
				OFFSET 3.362410 1.200890 -0.311210 
				CHANNELS 3 Zrotation Yrotation Xrotation
				JOINT LeftForeArm
				{
					OFFSET 4.983000 -0.000000 -0.000000 
					CHANNELS 3 Zrotation Yrotation Xrotation
					JOINT LeftHand
					{
						OFFSET 3.483560 -0.000000 -0.000000 
						CHANNELS 3 Zrotation Yrotation Xrotation
						JOINT LeftHandIndex1
						{
							OFFSET 0.715260 -0.000000 -0.000000 
							CHANNELS 3 Zrotation Yrotation Xrotation
							End Site
							{
								OFFSET 0.000000 0.000000 0.000000 
							}
						}
					}
				}
			}
			JOINT RightArm
			{
				OFFSET -3.136600 1.374050 -0.404650 
				CHANNELS 3 Zrotation Yrotation Xrotation
				JOINT RightForeArm
				{
					OFFSET -5.241900 -0.000000 -0.000000 
					CHANNELS 3 Zrotation Yrotation Xrotation
					JOINT RightHand
					{
						OFFSET -3.444170 -0.000000 -0.000000 
						CHANNELS 3 Zrotation Yrotation Xrotation
						JOINT RightHandIndex1
						{
							OFFSET -0.622530 -0.000000 -0.000000 
							CHANNELS 3 Zrotation Yrotation Xrotation
							End Site
							{
								OFFSET 0.000000 0.000000 0.000000 
							}
						}
					}
				}
			}
		}
	}
}
MOTION
Frames: 12
Frame Time: 0.041667
0.242414 16.017538 -3.916447 7.168543 -38.107610 -12.350844 -15.523409 17.916799 -61.588143 27.456782 19.287100 114.446088 0.330395 -15.931679 15.103237 0.593100 -4.930600 -13.710600 8.473085 0.806308 -51.941421 -12.355815 -19.174297 66.507410 2.160522 -15.301447 7.591773 -0.229300 -3.082000 8.507200 1.669094 3.054406 5.538600 1.835298 1.735412 -3.002168 3.673467 0.721233 18.185720 3.079000 -0.281300 12.628300 -77.425000 -7.980470 48.000080 42.029619 -49.909445 -22.736378 0.119033 -1.110705 16.515709 -7.125000 0.000000 0.000000 68.533974 9.202816 37.222245 -46.730155 47.982575 -24.805751 0.413591 -0.514697 30.242967 7.125000 0.000000 0.000000 
0.223101 16.022064 -3.907494 7.186231 -37.931733 -12.040890 -15.592124 17.746055 -61.806598 27.442180 19.299126 114.407479 0.330365 -15.938928 15.144750 0.581000 -4.881000 -13.569400 8.537892 0.792608 -51.966394 -12.258211 -19.135142 66.219088 2.171371 -15.306627 7.492451 -0.214000 -2.978000 8.217400 1.746936 3.007508 5.507171 1.829757 1.718541 -3.100892 3.279432 0.903881 18.463236 2.955700 -0.263900 12.737600 -77.539576 -7.880246 47.982315 42.142162 -49.966080 -22.830293 0.117521 -1.108466 16.701503 -7.125000 0.000000 0.000000 68.256125 9.133103 37.500707 -47.005076 48.112155 -25.033215 0.420716 -0.510116 30.089323 7.125000 0.000000 0.000000 
0.201978 16.028703 -3.896027 7.313990 -37.873563 -11.723406 -15.785139 17.705371 -62.089280 27.424567 19.309157 114.358830 0.325964 -16.018159 15.058587 0.589700 -4.916400 -13.670300 8.488468 0.950173 -52.048596 -12.156487 -19.099895 65.917785 2.188747 -15.343345 7.353763 -0.233500 -3.110000 8.585000 1.783663 3.019990 5.508655 1.770817 1.730483 -3.052029 2.983966 1.060018 18.413054 2.868900 -0.238600 12.655200 -77.658591 -7.788120 47.957550 42.225232 -50.008376 -22.901198 0.116127 -1.106527 17.032008 -7.125000 0.000000 0.000000 67.963962 9.009032 37.828271 -47.425131 48.308773 -25.387137 0.411444 -0.496194 29.671123 7.125000 0.000000 0.000000 
0.179044 16.037253 -3.884158 7.451691 -37.835572 -11.400444 -15.982817 17.718687 -62.376215 27.401685 19.321875 114.293479 0.315213 -16.227038 14.917846 0.628500 -5.072900 -14.116700 8.412360 1.201000 -52.101434 -12.049744 -19.061014 65.600075 2.197429 -15.359743 7.280791 -0.251600 -3.227200 8.911900 1.808928 3.059964 5.525558 1.709125 1.753703 -2.966238 2.816812 1.154295 18.452398 2.820700 -0.223600 12.633000 -77.703186 -7.706050 48.010328 42.383306 -50.087128 -23.028612 0.113189 -1.103640 17.268504 -7.125000 0.000000 0.000000 67.815158 8.953979 38.013704 -47.728008 48.447181 -25.643905 0.399374 -0.483621 29.372172 7.125000 0.000000 0.000000 
0.156412 16.042282 -3.875608 7.602651 -37.701129 -11.095237 -16.171893 17.591264 -62.661465 27.377298 19.334671 114.235662 0.304950 -16.426202 14.864323 0.670100 -5.235000 -14.580000 8.326341 1.387548 -52.120029 -11.934041 -19.015185 65.253392 2.206669 -15.362393 7.181344 -0.258400 -3.270300 9.032300 1.861337 2.997488 5.511888 1.776279 1.724188 -2.997242 2.656803 1.325324 18.647852 2.788700 -0.179800 12.716500 -77.749470 -7.627930 47.973827 42.546361 -50.162178 -23.149600 0.102843 -1.096995 17.364328 -7.125000 0.000000 0.000000 67.698369 9.050514 38.192633 -47.800736 48.480989 -25.701935 0.402054 -0.494234 29.459619 7.125000 0.000000 0.000000 
0.133277 16.052341 -3.861124 7.935490 -37.667127 -10.942099 -16.489712 17.569614 -62.838887 27.333911 19.343755 114.130526 0.298833 -16.586324 14.844327 0.684300 -5.288900 -14.734300 8.123512 1.574348 -52.089882 -11.813961 -18.968457 64.885610 2.193567 -15.300803 7.234083 -0.218800 -3.011200 8.309900 1.867913 2.950900 5.550786 1.818182 1.701431 -2.932690 2.436623 1.492150 18.788545 2.725700 -0.139400 12.788200 -77.743942 -7.663992 47.940068 42.497916 -50.125888 -23.085920 0.083175 -1.085818 17.410795 -7.125000 0.000000 0.000000 67.583482 9.179395 38.420856 -47.881223 48.518982 -25.764442 0.409187 -0.507684 29.504587 7.125000 0.000000 0.000000 
0.106622 16.059282 -3.846136 8.189761 -37.628303 -10.663294 -16.763031 17.573422 -63.135103 27.304358 19.355443 114.054658 0.282227 -16.896462 14.670079 0.710000 -5.385100 -15.010300 7.967370 1.815803 -52.111354 -11.684933 -18.917366 64.488141 2.181271 -15.272443 7.346967 -0.188400 -2.795100 7.708800 1.882558 2.945875 5.551849 1.810518 1.701691 -2.888191 2.229366 1.581838 18.862227 2.662200 -0.133100 12.806000 -77.723492 -7.604931 48.010170 42.510757 -50.124743 -23.075406 0.068681 -1.076597 17.451593 -7.125000 0.000000 0.000000 67.432285 9.147725 38.646153 -48.108720 48.622318 -25.953561 0.413994 -0.506420 29.373578 7.125000 0.000000 0.000000 
0.079866 16.070748 -3.836178 8.197514 -37.534041 -10.214142 -16.816653 17.488901 -63.455403 27.280123 19.378478 113.973137 0.270251 -17.128961 14.584905 0.704800 -5.365700 -14.954700 8.036888 1.979277 -52.108321 -11.530226 -18.847201 64.011149 2.178569 -15.304060 7.498886 -0.187600 -2.789400 7.692900 1.917504 2.920945 5.473528 1.719793 1.698739 -2.999697 2.002834 1.668416 18.850684 2.583200 -0.124200 12.753100 -77.642734 -7.365776 48.088902 42.661916 -50.200070 -23.190798 0.063687 -1.072399 17.525608 -7.125000 0.000000 0.000000 67.371247 9.004578 38.860295 -48.268882 48.696009 -26.086078 0.415245 -0.504746 29.296369 7.125000 0.000000 0.000000 
0.054317 16.085736 -3.827729 8.282578 -37.383079 -9.871310 -16.912630 17.335272 -63.651747 27.229614 19.403430 113.831923 0.267827 -17.244098 14.743846 0.683300 -5.285000 -14.723200 8.039157 2.078406 -51.982250 -11.345894 -18.759767 63.440580 2.199162 -15.375180 7.461681 -0.222600 -3.037100 8.382000 1.951486 2.862325 5.444762 1.688504 1.675230 -3.067502 1.798946 1.748872 18.874878 2.504300 -0.110400 12.750100 -77.599258 -7.251492 48.049292 42.748137 -50.243269 -23.263953 0.061631 -1.069574 17.687761 -7.125000 0.000000 0.000000 67.324790 8.935506 39.095628 -48.432536 48.769272 -26.220312 0.416779 -0.501882 29.331544 7.125000 0.000000 0.000000 
0.026655 16.096398 -3.819380 8.533434 -37.291761 -9.616678 -17.138124 17.323178 -63.903757 27.170739 19.427539 113.682318 0.254210 -17.558845 14.964502 0.723100 -5.433700 -15.149800 7.920669 2.290379 -51.838605 -11.148047 -18.666638 62.828203 2.222107 -15.434103 7.356667 -0.229200 -3.081400 8.505500 1.980947 2.856237 5.448916 1.731567 1.670714 -3.091006 1.730694 1.802475 18.923499 2.491500 -0.101300 12.786600 -77.592555 -7.186063 48.019169 42.877228 -50.307716 -23.370854 0.061732 -1.068111 17.914069 -7.125000 0.000000 0.000000 67.186171 8.860530 39.353558 -48.686222 48.880779 -26.429800 0.429960 -0.496710 29.275686 7.125000 0.000000 0.000000 
-0.002515 16.105652 -3.808316 8.653644 -37.195689 -9.315718 -17.225527 17.308923 -64.125954 27.120356 19.454268 113.546072 0.234164 -17.950353 15.139180 0.778100 -5.631900 -15.720000 7.936921 2.439065 -51.661167 -10.948734 -18.564350 62.201873 2.201934 -15.400739 7.624681 -0.197700 -2.863100 7.897800 2.032985 2.851407 5.457126 1.723400 1.668143 -3.111302 1.658673 1.843121 18.850694 2.483100 -0.098100 12.745900 -77.578679 -7.079631 48.082570 43.077205 -50.405638 -23.527191 0.061157 -1.066445 18.059638 -7.125000 0.000000 0.000000 67.101666 8.829336 39.548014 -48.824860 48.940982 -26.542145 0.441625 -0.495123 29.221459 7.125000 0.000000 0.000000 
-0.034401 16.116314 -3.796849 8.901481 -37.073458 -9.028921 -17.426694 17.156097 -64.332998 27.059281 19.477800 113.386570 0.232079 -18.061448 15.362728 0.784700 -5.655200 -15.787200 7.812327 2.600700 -51.528417 -10.756285 -18.468419 61.600796 2.183821 -15.324012 7.746373 -0.212300 -2.966500 8.185500 2.056157 2.799498 5.457678 1.756322 1.644123 -3.100366 1.536548 1.899553 18.939012 2.446600 -0.094300 12.809300 -77.525745 -7.011703 48.142361 43.230583 -50.480203 -23.644447 0.059296 -1.064307 17.994682 -7.125000 0.000000 0.000000 67.067991 8.937945 39.757034 -48.728443 48.898595 -26.453837 0.449068 -0.496567 29.306068 7.125000 0.000000 0.000000 
